<svg xmlns="http://www.w3.org/2000/svg" style="display:block" viewBox="0 0 2048 2048" width="1024" height="1024" preserveAspectRatio="none">
  <g transform="translate(81.92, 81.92) scale(0.92)">
    <circle cx="1024" cy="1024" r="1024" fill="#18852b"/>
    <path fill="#fefefe" d="M1464.45 375.269c.69-.04 1.39-.065 2.09-.076 30.85-.399 39.49 30.933 42.2 55.812 2.19 20.07 2.94 40.577 3.34 60.747.79 32.669.69 65.354-.31 98.018-5.75 200.675-58.7 414.91-209.64 556.99-69.43 65.36-168.19 110.17-261.62 126.64-41.447 7.31-84.431 9.41-126.457 8.04-21.985-.72-43.517-2.85-65.317-5.77-17.935-2.4-36.179-5.68-54.278-6.13-14.747-.37-28.313 1.04-41.104 8.93-59.644 36.81-84.919 181.83-97.975 246.61-3.372 16.73-6.581 51.83-19.183 63.1-9.346 8.36-22.415 8.41-34.206 7.66-15.004-.95-33.174-4.74-43.278-16.82-8.816-10.54-9.099-24.91-7.802-37.92 1.763-17.68 6.253-34.96 10.787-52.09 19.164-72.43 52.703-137.74 86.766-204.04 28.351-55.18 57.547-109.76 91.226-161.92a1249 1249 0 0 1 79.524-108.7 1291.5 1291.5 0 0 1 182.237-180.994 1689.5 1689.5 0 0 1 203.57-140.162 2408 2408 0 0 1 67.42-38.42c10.69-5.925 21.75-11.744 32.3-17.892 12.64-7.368 4.75-23.857-4.51-23.121-23.29 1.853-50.98 13.949-72.9 22.885-171.63 69.981-341.55 180.868-457.984 326.869a1009 1009 0 0 0-49.669 68.235c-12.651 18.95-74.709 120.81-82.615 127.06-1.751 1.38-2.162 1.37-4.262 1.18-19.616-24.64-38.337-97.58-43.784-128.5-20.893-118.58-.206-241.35 71.656-339.522 13.757-18.793 35.193-47.656 52.065-64.096 83.59-81.453 188.136-132.412 301.523-157.414 35.9-7.916 70.4-12.828 106.25-18.364a4606 4606 0 0 0 167.45-27.421c53.26-10.131 107.1-20.879 156.68-43.48 6.29-2.867 13.01-4.779 19.81-5.924"/>
  </g>
</svg>
